<mxfile host="Electron" agent="Mozilla/5.0 (Windows NT 10.0; Win64; x64) AppleWebKit/537.36 (KHTML, like Gecko) draw.io/26.2.2 Chrome/134.0.6998.178 Electron/35.1.2 Safari/537.36" version="26.2.2">
  <diagram name="Page-1" id="PthrOnoRbcr8aWvub0TZ">
    <mxGraphModel dx="1030" dy="1714" grid="1" gridSize="10" guides="1" tooltips="1" connect="1" arrows="1" fold="1" page="1" pageScale="1" pageWidth="850" pageHeight="1100" math="0" shadow="0">
      <root>
        <mxCell id="0" />
        <mxCell id="1" parent="0" />
        <mxCell id="sv2aUFSQl7KJcxXByfgZ-6" value="AWS Cloud" style="points=[[0,0],[0.25,0],[0.5,0],[0.75,0],[1,0],[1,0.25],[1,0.5],[1,0.75],[1,1],[0.75,1],[0.5,1],[0.25,1],[0,1],[0,0.75],[0,0.5],[0,0.25]];outlineConnect=0;gradientColor=none;html=1;whiteSpace=wrap;fontSize=12;fontStyle=0;container=1;pointerEvents=0;collapsible=0;recursiveResize=0;shape=mxgraph.aws4.group;grIcon=mxgraph.aws4.group_aws_cloud_alt;strokeColor=#232F3E;fillColor=none;verticalAlign=top;align=left;spacingLeft=30;fontColor=#232F3E;dashed=0;" parent="1" vertex="1">
          <mxGeometry x="240" y="80" width="400" height="370" as="geometry" />
        </mxCell>
        <mxCell id="sv2aUFSQl7KJcxXByfgZ-9" value="" style="shape=flexArrow;endArrow=classic;startArrow=classic;html=1;rounded=0;fillColor=#f5f5f5;fillStyle=cross-hatch;gradientColor=#b3b3b3;strokeColor=#666666;" parent="sv2aUFSQl7KJcxXByfgZ-6" edge="1">
          <mxGeometry width="100" height="100" relative="1" as="geometry">
            <mxPoint x="120" y="189.58" as="sourcePoint" />
            <mxPoint x="245" y="190.08" as="targetPoint" />
          </mxGeometry>
        </mxCell>
        <mxCell id="sv2aUFSQl7KJcxXByfgZ-14" value="SERVE" style="edgeLabel;html=1;align=center;verticalAlign=middle;resizable=0;points=[];" parent="sv2aUFSQl7KJcxXByfgZ-9" vertex="1" connectable="0">
          <mxGeometry x="-0.0079" y="-1" relative="1" as="geometry">
            <mxPoint as="offset" />
          </mxGeometry>
        </mxCell>
        <mxCell id="sv2aUFSQl7KJcxXByfgZ-3" value="Route53 DNS" style="sketch=0;points=[[0,0,0],[0.25,0,0],[0.5,0,0],[0.75,0,0],[1,0,0],[0,1,0],[0.25,1,0],[0.5,1,0],[0.75,1,0],[1,1,0],[0,0.25,0],[0,0.5,0],[0,0.75,0],[1,0.25,0],[1,0.5,0],[1,0.75,0]];outlineConnect=0;fontColor=#232F3E;fillColor=#8C4FFF;strokeColor=#ffffff;dashed=0;verticalLabelPosition=bottom;verticalAlign=top;align=center;html=1;fontSize=12;fontStyle=0;aspect=fixed;shape=mxgraph.aws4.resourceIcon;resIcon=mxgraph.aws4.route_53;" parent="sv2aUFSQl7KJcxXByfgZ-6" vertex="1">
          <mxGeometry x="80" y="40" width="78" height="78" as="geometry" />
        </mxCell>
        <mxCell id="mofOBFdLzk2cgrJd0EFt-1" value="AWS Api Gateway" style="sketch=0;points=[[0,0,0],[0.25,0,0],[0.5,0,0],[0.75,0,0],[1,0,0],[0,1,0],[0.25,1,0],[0.5,1,0],[0.75,1,0],[1,1,0],[0,0.25,0],[0,0.5,0],[0,0.75,0],[1,0.25,0],[1,0.5,0],[1,0.75,0]];outlineConnect=0;fontColor=#232F3E;fillColor=#E7157B;strokeColor=#ffffff;dashed=0;verticalLabelPosition=bottom;verticalAlign=top;align=center;html=1;fontSize=12;fontStyle=0;aspect=fixed;shape=mxgraph.aws4.resourceIcon;resIcon=mxgraph.aws4.api_gateway;" vertex="1" parent="sv2aUFSQl7KJcxXByfgZ-6">
          <mxGeometry x="40" y="150" width="78" height="78" as="geometry" />
        </mxCell>
        <mxCell id="mofOBFdLzk2cgrJd0EFt-2" value="" style="outlineConnect=0;dashed=0;verticalLabelPosition=bottom;verticalAlign=top;align=center;html=1;shape=mxgraph.aws3.lambda_function;fillColor=#F58534;gradientColor=none;" vertex="1" parent="sv2aUFSQl7KJcxXByfgZ-6">
          <mxGeometry x="289" y="104" width="69" height="72" as="geometry" />
        </mxCell>
        <mxCell id="mofOBFdLzk2cgrJd0EFt-3" value="" style="outlineConnect=0;dashed=0;verticalLabelPosition=bottom;verticalAlign=top;align=center;html=1;shape=mxgraph.aws3.lambda_function;fillColor=#F58534;gradientColor=none;" vertex="1" parent="sv2aUFSQl7KJcxXByfgZ-6">
          <mxGeometry x="270" y="150" width="69" height="72" as="geometry" />
        </mxCell>
        <mxCell id="mofOBFdLzk2cgrJd0EFt-4" value="AWS Lambdas" style="outlineConnect=0;dashed=0;verticalLabelPosition=bottom;verticalAlign=top;align=center;html=1;shape=mxgraph.aws3.lambda_function;fillColor=#F58534;gradientColor=none;" vertex="1" parent="sv2aUFSQl7KJcxXByfgZ-6">
          <mxGeometry x="250" y="200" width="69" height="72" as="geometry" />
        </mxCell>
        <mxCell id="mofOBFdLzk2cgrJd0EFt-6" value="AWS Cognito" style="sketch=0;points=[[0,0,0],[0.25,0,0],[0.5,0,0],[0.75,0,0],[1,0,0],[0,1,0],[0.25,1,0],[0.5,1,0],[0.75,1,0],[1,1,0],[0,0.25,0],[0,0.5,0],[0,0.75,0],[1,0.25,0],[1,0.5,0],[1,0.75,0]];outlineConnect=0;fontColor=#232F3E;fillColor=#DD344C;strokeColor=#ffffff;dashed=0;verticalLabelPosition=bottom;verticalAlign=top;align=center;html=1;fontSize=12;fontStyle=0;aspect=fixed;shape=mxgraph.aws4.resourceIcon;resIcon=mxgraph.aws4.cognito;" vertex="1" parent="sv2aUFSQl7KJcxXByfgZ-6">
          <mxGeometry x="80" y="260" width="78" height="78" as="geometry" />
        </mxCell>
        <mxCell id="mofOBFdLzk2cgrJd0EFt-10" value="" style="shape=flexArrow;endArrow=classic;html=1;rounded=0;fillColor=default;" edge="1" parent="sv2aUFSQl7KJcxXByfgZ-6">
          <mxGeometry width="50" height="50" relative="1" as="geometry">
            <mxPoint x="480" y="-30" as="sourcePoint" />
            <mxPoint x="350" y="90" as="targetPoint" />
          </mxGeometry>
        </mxCell>
        <mxCell id="sv2aUFSQl7KJcxXByfgZ-8" value="" style="shape=flexArrow;endArrow=classic;startArrow=classic;html=1;rounded=0;fillColor=default;" parent="1" edge="1">
          <mxGeometry width="100" height="100" relative="1" as="geometry">
            <mxPoint x="180" y="270" as="sourcePoint" />
            <mxPoint x="280" y="268.58" as="targetPoint" />
          </mxGeometry>
        </mxCell>
        <mxCell id="sv2aUFSQl7KJcxXByfgZ-11" value="" style="verticalLabelPosition=bottom;html=1;verticalAlign=top;align=center;strokeColor=none;fillColor=#00BEF2;shape=mxgraph.azure.user;" parent="1" vertex="1">
          <mxGeometry x="132.5" y="247" width="47.5" height="50" as="geometry" />
        </mxCell>
        <mxCell id="sv2aUFSQl7KJcxXByfgZ-12" value="https://myapi.com/" style="text;html=1;align=center;verticalAlign=middle;whiteSpace=wrap;rounded=0;fontSize=16;" parent="1" vertex="1">
          <mxGeometry x="120" y="200" width="60" height="30" as="geometry" />
        </mxCell>
        <mxCell id="sv2aUFSQl7KJcxXByfgZ-17" value="&lt;b&gt;serverless-api&lt;/b&gt;" style="text;html=1;align=center;verticalAlign=middle;whiteSpace=wrap;rounded=0;fontSize=18;" parent="1" vertex="1">
          <mxGeometry x="450" y="450" width="200" height="40" as="geometry" />
        </mxCell>
        <mxCell id="sv2aUFSQl7KJcxXByfgZ-2" value="AWS S3" style="sketch=0;points=[[0,0,0],[0.25,0,0],[0.5,0,0],[0.75,0,0],[1,0,0],[0,1,0],[0.25,1,0],[0.5,1,0],[0.75,1,0],[1,1,0],[0,0.25,0],[0,0.5,0],[0,0.75,0],[1,0.25,0],[1,0.5,0],[1,0.75,0]];outlineConnect=0;fontColor=#232F3E;fillColor=#7AA116;strokeColor=#ffffff;dashed=0;verticalLabelPosition=bottom;verticalAlign=top;align=center;html=1;fontSize=12;fontStyle=0;aspect=fixed;shape=mxgraph.aws4.resourceIcon;resIcon=mxgraph.aws4.s3;" parent="1" vertex="1">
          <mxGeometry x="539" y="-40" width="78" height="78" as="geometry" />
        </mxCell>
        <mxCell id="mofOBFdLzk2cgrJd0EFt-9" value="" style="shape=flexArrow;endArrow=classic;html=1;rounded=0;" edge="1" parent="1">
          <mxGeometry width="50" height="50" relative="1" as="geometry">
            <mxPoint x="730" as="sourcePoint" />
            <mxPoint x="630" as="targetPoint" />
          </mxGeometry>
        </mxCell>
        <mxCell id="mofOBFdLzk2cgrJd0EFt-11" value="myapi Git repo" style="verticalLabelPosition=bottom;html=1;verticalAlign=top;align=center;strokeColor=none;fillColor=#00BEF2;shape=mxgraph.azure.github_code;pointerEvents=1;" vertex="1" parent="1">
          <mxGeometry x="750" y="-22" width="60" height="60" as="geometry" />
        </mxCell>
        <mxCell id="mofOBFdLzk2cgrJd0EFt-12" value="openapi.yaml" style="text;html=1;align=center;verticalAlign=middle;whiteSpace=wrap;rounded=0;" vertex="1" parent="1">
          <mxGeometry x="660" y="-40" width="60" height="30" as="geometry" />
        </mxCell>
        <mxCell id="mofOBFdLzk2cgrJd0EFt-13" value="lambda code" style="text;html=1;align=center;verticalAlign=middle;whiteSpace=wrap;rounded=0;" vertex="1" parent="1">
          <mxGeometry x="650" y="130" width="60" height="30" as="geometry" />
        </mxCell>
        <mxCell id="mofOBFdLzk2cgrJd0EFt-14" value="Python&#xa;deployment" style="shape=image;verticalLabelPosition=bottom;labelBackgroundColor=default;verticalAlign=top;aspect=fixed;imageAspect=0;image=data:image/webp,UklGRjQMAABXRUJQVlA4WAoAAAAYAAAA/wAA/wAAQUxQSH0EAAABoEVt/yHJ+W2lBqeng6u19yq2bVvL4dnreCa2bY179iq2nXR3nKtRM7Za56Srqv+/Zav+/98XT0RMABlywakXDYVj32a4LpXnZBMv37wPwRhc2pdkXzoTd08HwDoslGcfq8T5tuwaWsfY985IQG5WV5q16PZbQtsxzNostEms8RaPdfpBUFzzI6zZ/IHCOu431q66QlStLus4JKizFOv5LTFdxNp+QUirlL54QETHuazzywQ0/xfWujpAPA0R1nw+KJ1bWftR4Wzv6o9PF40VYQNmLMl0sRF7BdOQNoPTLJc2NuQDYrHGTfGHLZXD2ZjnSCVkjphQWnLmUNNlspQNertM+kwyKpOUSRyRLGSj7imRU81yg0QuNssLEhk2S0wiEbNkJBIzS1Ei35rFk0jOLEoiJbOwRHjKf//8q/OW7S9IY0dETTehR3Q+fPQUfFsr9OhT+B6G73r4euH7DL2tGb1n0Otm7JpvYeSCO/R8wRJacOpFQ+HYtxkWuio52cQrtx7gl+DSviSD6E7eM6vurMNCecYydbFdTw2tYwyo+8RW9WJ1pRlUN2TXxY5hBrbQWbvGWzzG9pMtajQ/wvAWDq3Jcb8xwOr6GrS6jPGaqp2lGOVolS5ioF+vyiqFFD9SheNcxvqaiub/wmCrAytoiDDc+S3Ku5UB/7is7V3EeFkZVoQhz9ub6mLQhzbRkEbNDW6sjWHv24g1jlvR3uBwBr5ngxBySSJqySHHM4iWMvR3E/VhN06Uws6hhQz+Pqeid+PF6L00jF48gl42hl7xW/S8HHqqhN6U/6f8/7fAEnw59NS36HmT6BUj6GWH0YtfjN5Lp6B34wL09qIkdg5RL3ZjRGdidydRSw66GUQ0jFyCiOgw5Lo3sMZxK9obUCtuvbRRO4WaG9gYdaDWT5ucFsYsb2+KtncgW0bl3ozYh1R2QxivfLA8mvczWuoAqvQYF6yrqPKVCqohqmYPUq9Qdc9SMEWp2qsckEao+kf/gpC6imo5L4xP4WCqbcONLjgfBqnmO7yHTKGN6nFaWxIVt9+iOrVOH0XEGQlQHVsHD2axUIlum+o9cPqDMRSc8Tunk0/nndwz8N7E179LTXnFbPylm/ciQ/rMee6k6SR9f0W2IAB99RRB6KdvCL1j0CsQeqPwReEbg68AH58I308WevwefBybhR6X3u1cgp0Pp/z3j6QSfDmzKIl8ZxZPIjGzFCUSNUtWIiGzxCVyiVlekshpZrlRIovMspdEKG0Sh0Tab5IxmSwzyZ0yackZZIZMaI05EiTUI83RLZXNJk1RtKVCnaboJbE2fG4GNyAXWm2GfhKsFTVB3pYM7eIZYBnJ9nb9fUjCbYjqLh+UDi35XW/qAJLviZ7WriIJr9bZEMn4Mn29QlLuUZqKkpzbXS2NkKSP/10/6iqS9fyobgoHk7SbbvO08mGQBL5TRB+FNpK51ZXWg9tvkdgbWsf954wESPTW4aG8n1Si2yb5B5f2JvzhjN85nWBccMpFg+HJbzL1obxiNv7SzXuRIQEAVlA4IM4GAAAQLgCdASoAAQABPnU4lkikv6IhKJGpG/AOiU3cLcvF4y25MfuX5M+Lp3/rf9k/Yr8xOyI3y8J9BWhPrF/g/cp9EP8B6mfMA/Tf/S9RDzDftZ+tPvIf6T1w+gB/SP+P1jfoAfth6b37ffBV+2v7ke0V//9ZjPWXM1onzVXTeMw6YLIMHf3xlsaD/p4aaFf8QxFhiw8PsyRBYL+2kttZnne4ITbyGwFskhHFbZtxNx0H1RErFZxPTOYi5PwSU9tBfadkEfvGtFGdpDSpze3iDn4n5vThREXjeUQtn+KLWVjjoP/LDCJvQrZF8AEREz3g1BpG6FVfrY0EYct39gOkWsszMKPO+tiPIeKC6GTY0F8NAyaIDUTjlnk/JZnwP0SieNnj0wsTXTcuOtKtNeeeQSPmxYRc83XG+DuYbUwdueUAOSN8AEInGNcKQb8NAAzN/c2lmed7hb2V4n4LllKMjRh9MpXTW+iIvG020dTmPiFY4MAdzdiR0FJ6gAD+9j5M3/5b2l5J7m/YT5wn4dRP+D++j9E3S6Gcy+ix5eTtbobRTaeukI+6Ssam4Q2vhqtaC8U5cvqgtw5inJxaPIGDdigIWQoYlyl8ZXQIJoJC86jhBbMYbkQ/hL2FC3p+AqMN0K4ExT5cDVT7X30L4sVoRS3ts8jQJQrsCYR/xZ//+sE//rJ///rBqv9dKdYuLfGDFkscDejLEsmai8eviv6/zvcI/S98yoHTwkh62M3m+tLZ1FXmsfJ+Qk+FIqZP0N2AcWwH0Hy5fFNqN4jzm/UvEcxaYclGwL+ouTuq9Ze/8f9norAQ6Jty0X4MV9JFlnzlpmeXxQL43E3ZwilsEW0AkVgSaG2Ox656CROy6NelKXgIB45v0w6ycpDiCVeCF/SDTrAhiLVC8nIxK+vpryHyTju6LP6itvQe/tFO0aJo4CbRrXUG56ZyhYqquyyWTJo62ox4l8uEfkyxJpNSHt42QWBvs6sKTA//DHgpLEP6pAQN7XF5oCyGd1Zb6x5d18KjhUonvEZe7TafjPdQtKyh57Rlp+XQvfw+zMp/eLxf3AK6TPoNy9/ZF7qJtrjizTtZo+WEdQAU6NYg8YDU2nRd/QXe5FOgEyn5Jb/K+u9y7eWyWwHxTFr6bq1a5p8Y5yKyxVpsnqAfkPIrc2zjFnGKhlUaE8AADY03JgZVeFP0eEXdDBlgnag4VYA1w6uo/HMVyJ7qiZ38IpdJwngL+WCHQvli6p4zRdLnxULmIZ6Wnvzbq0ARn2/PkooXI43K+kUiwIgeWb+8ytAaPrXX/Ij7lRSyqlrf1eTah2/Jn2r4SQi+UOZEW4tG6Hg1VbrP2+ev3ssOxG2m/Vd2+or831dEHSdPGmVX8VLAVIDpNd3xJGvEsVGxaHz4fIFiJFRGBd3E7KIRsrpGZ1y/2/9YncxGWFBOp0oKMouTz++MlI7N3QrMHfbYWaNVkw5bg6Nijd7pPhE0xN1LUznM6dt9tY/Cx2GPzcuHz0HkCKX8K3irkf1XI9pABPjAictDX0iaffdXi3GQiapRqgPyIINSApLKcFLratMKZ4bIqSRYkdnt8guWG7hq0JqPCAPZrsI36DAzLAmG4VmJLpRBga4Nap5LPDRLub11+qNnP3l96NXtrp//WptFar8D7XgzsKhR0XCH5aoAVVwL8c8d6VxZIwObK9XGHTzdpcw7ZjVt1mcZ5JBYoX9ez53fIH1JOBgOkBpkX/tXonuDJ8UQ+kABj+u/gJ0zB0S/b0DLDgRRycKSVamJ3sjamgOKaLv8M2tivtGJepfEYNB1W7jf/7llJhI+heVeIRYqtTVqaHgABtEaKF8AylrwccZ5xlfi215AM/+vuJitcpwmU8pXn+EkYCmrUg/SYAdID+///HxyXh/i/lUvJDwDLA9XcjYAAa98UPrwgXkKuQsvtNwJ6QAia6AjXGo7ovEx8+dcvUZOw4qfqAgqVB17iLKOUPfjSB3Tx7z3s3rwKxFV+6S1dwSsWY/KEQgFQhxNBMOthR3vptLrabR4scsAfWcKo2zy8QUuyPeGb3vU5HDw/hdne6/NbopE8DamyNtCupdrtcc0nFx3DTGP+Za6c/2v7ygioNQMv/jUzpI+PS5oCsBADNbyRlBOY29NcE7qbOIE2N0K8zvh2gNSybhu+0LkFF05k/usDyBGX/+F7EehW2/p2Vi5efLnNOD0C7eyhcht4+PRn19d3PUFHeo9q5os1hiazl98bXPSRFtUB+PoWhIieUVVd4Nap5K/IBbR+eHRZxjug+8ZHPmni5KLYU8W25v/eY7/3LCuEQkM0VDSA9Qwalk4cAAAAEVYSUa6AAAARXhpZgAASUkqAAgAAAAGABIBAwABAAAAAQAAABoBBQABAAAAVgAAABsBBQABAAAAXgAAACgBAwABAAAAAgAAABMCAwABAAAAAQAAAGmHBAABAAAAZgAAAAAAAABIAAAAAQAAAEgAAAABAAAABgAAkAcABAAAADAyMTABkQcABAAAAAECAwAAoAcABAAAADAxMDABoAMAAQAAAP//AAACoAQAAQAAAAABAAADoAQAAQAAAAABAAAAAAAA;" vertex="1" parent="1">
          <mxGeometry x="660" y="20" width="40" height="40" as="geometry" />
        </mxCell>
        <mxCell id="mofOBFdLzk2cgrJd0EFt-15" value="Terraform&#xa;IaC&#xa;deploymnet" style="shape=image;verticalLabelPosition=middle;labelBackgroundColor=default;verticalAlign=middle;aspect=fixed;imageAspect=0;image=data:image/webp,UklGRsYXAABXRUJQVlA4WAoAAAAYAAAA8wEA8wEAQUxQSFMMAAABBj/Uti1ubGtbSWa7mZmZmbm9qHtqrU0Kd40dKa1QY2cVKq1Q4apQm7cmjeFmZmZmNDSYbenZ3C6pVM9zb/I5I2ICCPjv11gC31bwJwucoiNdJ3Dw4DuJg5blEkd/doLAwS9OlcDBnd9IHOTnShx93kiBg9epuMDBxW0SRzE3S+Cg060XOHhhSxwcWSVxFPxJAgft6VqBg3sHJA5alkkc/d5ogYNWp0rg4PJOiYP8HImjOzNC4OCVHRM4OL9F4ij6UwQOOt06gYOHSYmDwysljoHsRIGDdqda4ODu7yQO8vMljn5vlMDBm1Rc4ODSDomjmJstcNDlNggcvLRjAgfH1kgcBX+ywMFXt07g4EFS4qBlucTRn50gcPCLUyVwcOc3Egf5eRJHnzdS4OB1Ki5wcHGbxFHMzRI46HTrBQ5e2BIHR1ZJHAV/ksBBe7pW4OD+QYmDlmUSR783WuCg1akSOLiyU+IgP0fi6M6MEDh4ZccEDs5vlTiK/hSBg063TuDgYVLi4PBKiWMgO1HgoN2pFji4+zuJg/x8iaPfGyVw8CZVJXBwYZPE8Y/D/hOR5r+uNxsL/qglf6Je2Aajye1t1xQ4uspQxOy3Cn2h4E8yERvPKLQG2tO1pmG6X1TaA/cOGIWG9Bf1H2sOtCwzB4kn6j/XHvq90WZg7XH1X9UfaHWq9G+8N6g0Cy7v1Lwa55P6Rj2C/Byda76lvlmX6MqM0LWFeTWE2gQv7ZiOjcn0Kq2Dc5u1K26/U0OrVRT8yXq1+6oaar2Cr26dPs3wi8oQwIOkJjWmv6oA9QtalutQ4pkKVMfoz07QnXUnVcBaBm1Olc5M8AaVkYA7v9GWGuezCl7bID9XT5rvqFLUOLozI/Vj8Q+qNHUOXtsxvRib6VMGBC5s1Yi4/UGVrO5R9Kfowt7rqoS1Dzrdeh2Y6auSNgDwMBn5mtweZVzg8MpIF0s+V6VuCBjIToxuG06r0jcF0O5UR7Np2YIyOHD3dxGs1vmiytIkQH5+1Eo8VmVqFuj3RkWpJT+psjUM8CYVj0rjvAFljODS9khUnfqoytlAUMzNjj77b6ryNhHQ5dZHmwU5Ve5mAl7asejS5PYqQwVHV0eUmP1WhaC5oOBPiiKbzqpQNBjQka6NGtP9ojJecP9gpGhIf1VhaTigZVl0SDxV4Wk86PdGR4O1x1WYmg9odaoq33hvUBk2uLKzwtU4n1TImhHIz6lkzbdU6JoSujMjKtWivAphYwKv7FglGpPpVUYPzm+pOHH7vQpno0LBn1xZdl9TYW1WoNOtqxwz/KISAniQrBCNbrcKcfMCh1ZUgFjymQp1E8NAdkLYrT+pQt7IQJtTFWZTs4NKJODOb0Krxvmswt/YQH5eOCUeqUpocOjzRobP4h9VZTQ58DoVD5ex3oASELi4LUTi9gdVMU0PxdzMsNh7XVVQ4wOdbn0YzPRVRTVA8MIuuya3R4kLHFlVVrHkC1VpDREFf2L5bDytKq8pgvZ0bXlMyxaU4MC9A2VQ63xRFbnMXpoF+If5pZZ4oip0mY33Bs0C/d6oUlr6s6rYZQZrj5sFeJOqKpVx3qCKbJB4ahbg0o6SqE59VJU8BGhIfzELFHOzg9t/U1X2MIDpftEoQJfbEMzCnKr04QAbz5gFeGnHhm6E26s0gZj91izAsdVDFLffqQgYGtDk9pgFCv6kodh0VkXCEIEFObMAHem6b5nuF5V2wL4bZgF++ZZ/VFExZKhOfRA4GOsNCBws+VHiIPFI4qhxPgscTM0OChysOylxkHgmcTSmvwoczPCLAgebz0kccfudwMEIt1fgYGFO4qD5psRRnfoocDDOGxQ4WPqzxEHiscRR63wROJiWLQgcbDgtccSSzwUOGt0egYOZvsTBnmsSR9x+L3AwJtMncLDoe4mD5lsSR43zSeBgvDcocLD2uMRB4onE0ZD+InAw3S8KHGw8I3HE7LcCB01uj8DBgpzEwb4bEkd16oPAwVhvQOBg8Y8SB4lHEkeN81ngYII3KHCw7qTEQeKZxNGY/ipwMMMvChxsPidxxO13Agcj3F6Bg4U5iYP9NyWO6tRHgYNx3qDAwdKfJQ4SjyWOWuezwMG0bEHgYMMpiSOWfC5w0Oj2CBzM9CUO9lyTOOL2e4GDsX8hcd8+/LkDxqNNS2i+YzaOrtYTapxP5uKFHbO0dbw3aCa63HpLa9edMBDF3CxLexNPTcPFbZYON6a/moTXqbilydP9oino80ZaGr3prBnIz7P0Om6/0787v7H0u8nt1bs2p8rS8oU5jev3xljavv+mrrUst3S+OvVRx+5/Z+n+OG9AtzrSdZYBXPKTVhX8SZYhTDzWp6OrLXNY63zWoxe2pdvb/zIWAEz7Y1F/utx6S7v/RF3cFgSsP6U5xdwsS8P/RFHMzQqCWPKZzlzcZmn5nyigy60PABrdHl15nYpbGgcv7CBghl/UkT5vpKXr/wkcXR0E7L6mH/m5lr7/Fyj4k4Igbr/Xi6u7LZ3/r0BHujYAGJPp1YdWp8oyBnD/YBCwKK8J/d5oS/O/BVqWBwHNt3SgZbml/d9Gvzc6CGqcjqh3/6BlAIcAWp2qAGCcNxjlOtK1lqGAK7uCgDXHI1vBn2SZwSGC/NwgIPEkmh1ZbZnCIaM7MzIIGtJfotcL2zKHQwev7FgAMC1biFadbr1lRODC1iBg4+kIVczNsoxiMBT9KUEQS76IShe2WYYxIOh06wOAJrcnCr1OxS3DAg+TQcBMP/J0Z0Za5rEE4PCqIGDv9WiTn2uZyJJgIDsxCOL2++hyZZdlJksD2p3qAGBspi+atDpVltGBeweCgMU/RJB+b7RlLEsHWpYGAc23o0bLcstglhL93qggqHE+RYn7By2jWVLw0akKAMZ7g1GhI11rGSS4vCMIWHciEhT8SZbpLDnIzwkCEk8r35FVlvksA7oyI4KgIf21sr2wLRNaDvDSjgUA0/1i5ep06y1jBee2BAGbzlaoYm6mZUjLhYI/OQhi9ttKdGGbZUzLBr66dQFA0y+9lea1HbMMGDxIBgELchWlOzPSMqllBYdWBAH7b1SO/FzLrJYZA9kJQVCd+lAZruyyTGu5QZtTHQCM8wbCr9Wpsowb3P1tELDkp5Dr90ZbBjYMID8vCEg8CrOWZZaRDQf6vFFBUON8Dqt7By1DGxLwJhUPAKZmC2HUnq61DB9c3B4ErD8VOgV/kmVuQ4RiblYQxJLPwuXIKsvkhgl0ufUBQKPbHR4vbMvshgu8sGMBwAy/GA6dbr0lCnB0dRCw+2oIFP0plvENHwr+pCCI2+/K7cJWywCHEHSk6wKAMZnecnplxyyhgPvfBQEL82XTnRlpmeGQgpblQUDzrfLIz7VMcWjR740OgprUx9K7sssyx+EFrU5VADDOGyytVqfKEhG4sisIWPpzCfV7oy2jHG6QnxsEJJ6USssyyzCHHd2ZkUFQ63wphXsHLOMcevDajgUA07KFoNrTtZbAwIWtQcCG04EU/ImWia4IFP0pQRBLPh+6I6ssM10ZoNOtDwCa3J6heW5bprpSwHM7CJjpD0GnW2+JD7SsCAL2r/8We4plsCsJBX9iEGa9okB7ulbg4N4BiYOWpRJHvzda4KDVqRI4uLxT4iA/R+LoyowQOHhlxwQOzm+ROAr+ZIGDTrdO4OBhUuLg0AqJYyA7QeCgzakWOPiDyP0y7L9h/w37b9h/w/4b9t+w/4b9N+y//xXvDyIXtz8IHIzN9AkcLP5B4qD5jsRR43wSOBjvDQocrDshcZB4KnE0pr8KHEz3iwIHm85KHHH7ncBBk9srcLAwJ3Gw/6bEUZ36KHAwzhsQOFjyk8RB4rHEUet8FjiYmi0IHKw/JXHEks8EDhrdHoGDGX5R4GDPNYkjbr8XOBiT6RU4WJSXOGi+JXHUOB0CB+O8QYGDNcclDhJPJI6G9BeBg2nZgsDBxtMSRyz5QuCgye0ROJjpSxzsvS5xxO0PAgdjM30CB4t/kDhovi1x1DifBA7Ge4MCB+tOSBwknkocDemvAgfT/aLAwaazEkfMfitw0OT2ChwsyEkc7L8hcVSnPggcjPMGBA6W/CRxkHgkcdQ4nwUOpmYLAgfrT0kcseQzgYNGt1vgYIZfFDjYfVXiiNvvBA7GZHoFDhbmJQ6ab0kcNamPAgfjvEGBg6U/Sxwknkgctc4XgYNp2YLAwYbTEkf8r3ZENABWUDggigoAAPBzAJ0BKvQB9AE+dTqZSSSkIqEk1hhYkA6JZW78bhwygmQNKU4k/rN1t8S/xbzEKAQIDsAPwA/QBxgH4AXn01f2jWrul/jn+bvVT79+FemBQh6R+unnDqUeYB/DP4X/bP5n16f4B6AP5F/XPWG/AD3Af5T1AP756AHqD+gB+tfqp/7f93PgQ/bv9sf/b8g/82/zX///7/uAf+z1APXl9F/sV/JPwV+X+wBc4bgI4+3AagaQJlH99N+YKCalxJBP8oKFj40W32rHxotvtWPisxjWEoRZlRniix0OLO+UUvcWd8ope4dgcai8pfy519lFSAHIcWd8ope4s75RSsDOIt1zRYNFpfReO+UUvcWd8ope4dgcb3D1hhTBnE/3OQ4s75RS9xZ3yOnCxQUYMkp552jR5VJ+AchxZ3yil4mPKHtsIOnupY75Qi3wAdSi7e3tEmtI1j40W2s13El7NLqlnVCTLD4Par1kWIV3B8+ySzZJeO+UTqQs8feA4VLGJNISvvajWPistAxMikv755ycVbn2sFr5FNDEg7CSpzug1fXFL3FeLQMTVeyPnibJ1ZJU9Sbv3VKHHfI6bhB2kHFcgjpilFKwEXQcWdsENSXMtmmKXjhaXkc2i6eXZt4jLhtxXi0DE1Y+KzFXZ3yOm4UXUUl/JY18rDRbAE7SUppf3FeMalfKJ6yyKXuHuTHCAvmpzHxotPdSx3yhF6g9qx8r1ZEK1a9L3qD2rG/ZDmY+KzFXZ3yilbWYEqoSdVOK3aiGr64pe4eAfmFBRS9xZqX+tgg/nP4fFPAX+UjWWk2YQY9ogtpn0pwQV7izvlFKwEfJGX8LthNATV0QYqqXXjGpW+ggutmPjRbfasb9ium/P7paMjXs2Bm8MFDiHbMfGi2+1Y9vA41lzO3wuUjdhp+zpWBFtvHiivAlEcc75RS9xZ3ubqWPj2KH9GnF1bBqBAFqzT0iCdjvlFL3FnfKEXtRrH2VqVeO+UUvcWd8ope1fXFL3FeMVdnfKKXuLO+UUrAziK5DV9VlqIcWd8ope4s2ULfFne5ug4s75RS9xZ3yieswgx8Z1QiIcWd8ope4s75FSlrz92bmY+KzFXZ3yil7izvlFK2+bqzPiRe73DbizZQiIcWd8ope4s75RPsTG05vIgcLS9xZ3yil7izvlFLx2AsaLHquX9QiIcWd8ope4s75RS9rjZEznExbrn75XkLS9xZ3yil7izvlFL3FfDzgWpa3zXjvlFL2mAD+5hNgvsZXvrDnmr76w5snMFZIVGS1os3yG/AmFQqktt55wTLioPYFrAeloNdla4aYQ2+IkaoyvI4AEnxWzFp34bWxRMdDFURG6u7RaPRavx0J0pVPXYIB/dODg2UpbPwBAKTwV7w+VyNPPl0uiEdF+65/4yaBsZImtOa/Eeg4Mfi6bvbdwgXAA7ERbuvXmmnHRffQZDOCE72dHf+cdWGjyoFg4NlKd9rQG+fPJA/2gNLqdsNLh3xLqDeBO/yivhXvtUVBJ5n/wF0ZRhTaWfv36A+FAfJw2rnOEjLDHQS0daIDGMp6a3BGRojCV3h5RcP9Re/Jv3sxEkmTPuWSiUwW/EzctRXr/YzUaUDGA6GJbPupf9Reruxdf85mDXSSz5jP3ioso0kt6eY6KU8ijEEhZbk1vFIE6js81x4OGgXZCQtmmEEk2fMuMJ0LMwD4UktYEEHjIQuxWOn0BgwuInPBQ+S03wYQQJ2YAdAcPw1+iyDnKkCYeEg3lf/XGQ/iejIJoGTEp4C2Vjf87YSGP3i99aHv3ym40TmteQKQgTl4qi8227bHVzFWGLph3rXNBqV5sYzVWP0Mmo5RpIQ/5cVBJ52dtywgxemY4lzHBsWXHa1okbxTtKkoGDuHvwXt2HsXm+EhjWktq71DXkTcPq33+omG/6kpM5gm+QHYdG3Yy7g16xZBYuQnA/Mi/08xOLRcMjLpU3TMzF1rzhtB/bsTw9d8kGgZiAli2FkB/Hfjxtitm53t+Kei7x/3hGfP8Hy7P6ZQaQ1pjY275zORZqAzdLXNE4WIhKKdBsJekzs/a0b8L69183D6NCP+E6h5bpKN0TIPSgurVkFlE2IWmTQfshe1bESe8eeMkAUzNH2m3kox/TneGwET1qi//LmGUhrB97QUE2nhAKwSZJuWosNhj5G7QYteg9lFPy7Thmhlc13ec+ZX81mM2V21Ucd3UIX+9TX86Jg7kk6nNpbjhi+xNvmXe9rIp0wEEVOhKrMiOmUCmhNp3ekuJ+ddH8VBmXn/IYGiuc97wWvm+zc6OgxTDDz//XkftHo8+5dA6W7ybxkqjmjh+b/MTEHhl4UDvV4XUDJrKyBiiDz4Z4kIGdLxsRAXmnY0zGkoDtrXdREwc4yzUl9kwuGek/3hS3RGfGBcd//jHo9w9/5P9fTfrgpoTj1vcCWZ84oylb0+EbaD5EW8g9b3GMHyWthLind14WP0rH4u2bWHpbMKgzDnn2qRP5TDh1+xdx81rOE7X9AfCgPvaGup7j2MsfLz8HGOUDF/6gskiS9W7+mrmwyi++FiWMu8a2W+ALemQqeUMteJ9qjENYvf7rs+AcTgISfIBcqvf8LjPR5TJp+d3dcbqb+FS/CqRRq+ksF6NSRr5VoWaOfZ6BAR8WIRbA7Scl/bFV6VTptS2wASGoz+hr35i4+iDEnlZ9zY1VOI7a+YiP0SuJthP7oMCOa7c61vwDYg9n6Zhz3jFzRlsmngbPVsg9mQ8nuznJUiXgKcYNA6EEyEExf2sIBBFsr39pHua1K9f7n6OH4ya3rXKcxfd4AF8rToyPwgWY7h/TX+lr8wHbTJ2P/uU//0ZgNU/EFYja/ptubZ/kjmfu4IDgkm/pJmb3ynkxpSo9iZdt/yvgT2GmFJf8gTX2NO1+F4lrNOd6oktS0g9a3qTdtGw1BJzfZmeErc9yK4+0Nd8qaD2A6ZBwNV5zwBlv6jWQeFFionU3KTyeNsZLFdelXSDq6SJXNv+tpGIUcx5VzGr9IZUPfWsbT5xoPw+5fmY7bzYVTzAdbP+E/dw/iZhBWvt4590r0jRCTTA8IdsNeTqecg3JnsnUyqNFI1XTSkuXNqTWWvbGnSeZ2jW628kC9+2BnTX4jdIrr3dnOYznOdLtM9MUsd5tMkAAlTLJcMt6q9DB+J49DoKE6A0zYsuwGScuq/cP/m/3jxxSfQAk0BpdTtVKm38J7yEKwgeTmjODMCdkVqmpdftN1wPelBQagrPCwJ3W4JaZicpHb8GnrK7EcHAufwb+qhSzsRSIRi6AbCSSgOBkHwGkiiAWf7BwSSm3tTER//pj0e4jahPS1RxZu4ZY0A4qfnvZcjHjIZAKbFk9Tem4jJUjmE87czF4ejpGauxiIhJG0Nr/8qGn253Dt3v1aBIM/iHQB3QNBIrR6PPuXTfbPyubxyKVZpys3CncSSqtn+RTyMHzMdt5sQmQtu+5iJKAE/DdgXZCj/uhLztmcZCTMcPt5AltCgN3x+fbp4pUMgAUCoENTbBUyj8GW+P3mdrKz3/LLiriGwIGRUxvKgA9A0WmectAAcQfuFEbuIACMOlOR0fxa4RND9kCOzqK00WlAAAABFWElGugAAAEV4aWYAAElJKgAIAAAABgASAQMAAQAAAAEAAAAaAQUAAQAAAFYAAAAbAQUAAQAAAF4AAAAoAQMAAQAAAAIAAAATAgMAAQAAAAEAAABphwQAAQAAAGYAAAAAAAAASAAAAAEAAABIAAAAAQAAAAYAAJAHAAQAAAAwMjEwAZEHAAQAAAABAgMAAKAHAAQAAAAwMTAwAaADAAEAAAD//wAAAqAEAAEAAAD0AQAAA6AEAAEAAAD0AQAAAAAAAA==;labelPosition=left;align=center;" vertex="1" parent="1">
          <mxGeometry x="360" y="-40" width="60" height="60" as="geometry" />
        </mxCell>
        <mxCell id="mofOBFdLzk2cgrJd0EFt-16" value="" style="shape=flexArrow;endArrow=classic;html=1;rounded=0;" edge="1" parent="1">
          <mxGeometry width="50" height="50" relative="1" as="geometry">
            <mxPoint x="530" as="sourcePoint" />
            <mxPoint x="430" as="targetPoint" />
          </mxGeometry>
        </mxCell>
        <mxCell id="mofOBFdLzk2cgrJd0EFt-17" value="" style="shape=flexArrow;endArrow=classic;html=1;rounded=0;fillColor=default;" edge="1" parent="1">
          <mxGeometry width="50" height="50" relative="1" as="geometry">
            <mxPoint x="390" y="30" as="sourcePoint" />
            <mxPoint x="390" y="88" as="targetPoint" />
          </mxGeometry>
        </mxCell>
      </root>
    </mxGraphModel>
  </diagram>
</mxfile>
